<?xml version="1.0" encoding="UTF-8" standalone="no"?>
<svg
   xmlns:dc="http://purl.org/dc/elements/1.1/"
   xmlns:cc="http://creativecommons.org/ns#"
   xmlns:rdf="http://www.w3.org/1999/02/22-rdf-syntax-ns#"
   xmlns:svg="http://www.w3.org/2000/svg"
   xmlns="http://www.w3.org/2000/svg"
   xmlns:sodipodi="http://sodipodi.sourceforge.net/DTD/sodipodi-0.dtd"
   xmlns:inkscape="http://www.inkscape.org/namespaces/inkscape"
   width="210mm"
   height="297mm"
   viewBox="0 0 210 297"
   version="1.1"
   id="svg1206"
   inkscape:version="1.0.1 (c497b03c, 2020-09-10)"
   sodipodi:docname="logo.svg">
  <defs
     id="defs1200" />
  <sodipodi:namedview
     id="base"
     pagecolor="#ffffff"
     bordercolor="#666666"
     borderopacity="1.0"
     inkscape:pageopacity="0.0"
     inkscape:pageshadow="2"
     inkscape:zoom="0.35"
     inkscape:cx="400"
     inkscape:cy="560"
     inkscape:document-units="mm"
     inkscape:current-layer="layer1"
     inkscape:document-rotation="0"
     showgrid="false"
     inkscape:window-width="1252"
     inkscape:window-height="762"
     inkscape:window-x="0"
     inkscape:window-y="25"
     inkscape:window-maximized="0" />
  <metadata
     id="metadata1203">
    <rdf:RDF>
      <cc:Work
         rdf:about="">
        <dc:format>image/svg+xml</dc:format>
        <dc:type
           rdf:resource="http://purl.org/dc/dcmitype/StillImage" />
        <dc:title />
      </cc:Work>
    </rdf:RDF>
  </metadata>
  <g
     inkscape:label="Layer 1"
     inkscape:groupmode="layer"
     id="layer1">
    <g
       id="g1033"
       transform="matrix(0.26458333,0,0,0.26458333,-189.28291,76.472309)"
       inkscape:export-xdpi="14.616881"
       inkscape:export-ydpi="14.616881">
      <path
         fill="#ffa00a"
         stroke="#005983"
         stroke-width="6"
         stroke-miterlimit="10"
         d="m 1138.5,281.7 h -82.1 c -33.2,0 -60.1,26.9 -60.1,60.1 v 68 h 202.3 v -68 c 0,-33.2 -26.9,-60.1 -60.1,-60.1 z"
         id="path1003" />
      <rect
         x="1063.7"
         y="263.20001"
         fill="#ffbe6d"
         stroke="#005983"
         stroke-width="6"
         stroke-miterlimit="10"
         width="67.5"
         height="44.599998"
         id="rect1005" />
      <polygon
         fill="#d1d3d4"
         stroke="#005983"
         stroke-width="6"
         stroke-miterlimit="10"
         points="975.9,337.8 988.7,93.8 1001.6,337.8 "
         id="polygon1007" />
      <rect
         x="955.29999"
         y="336.29999"
         fill="#d1d3d4"
         stroke="#005983"
         stroke-width="6"
         stroke-miterlimit="10"
         width="66.800003"
         height="14"
         id="rect1009" />
      <rect
         x="977.09998"
         y="350.79999"
         fill="#d1d3d4"
         stroke="#005983"
         stroke-width="6"
         stroke-miterlimit="10"
         width="23.299999"
         height="45.799999"
         id="rect1011" />
      <path
         fill="#ffa00a"
         stroke="#005983"
         stroke-width="6"
         stroke-miterlimit="10"
         d="m 1142,263.2 h -88 v -15.1 c 0,-24.3 19.7,-44 44,-44 v 0 c 24.3,0 44,19.7 44,44 z"
         id="path1013" />
      <path
         fill="#161616"
         stroke="#005983"
         stroke-width="6"
         stroke-miterlimit="10"
         d="m 1131.2,263.2 -0.1,11.9 c -1.2,17.2 -15.6,30.8 -33.1,30.8 v 0 c -17.5,0 -31.9,-13.6 -33.1,-30.8 l -0.1,-11.9 H 1054 v 11.9 9 c 0,24.3 19.7,44 44,44 v 0 c 24.3,0 44,-19.7 44,-44 v -9 -11.9 z"
         id="path1015" />
      <path
         fill="#ffbe6d"
         stroke="#005983"
         stroke-width="6"
         stroke-miterlimit="10"
         d="m 994.4,412.1 h -13.7 c -8,0 -14.6,-6.5 -14.6,-14.6 V 374 c 0,-8 6.5,-14.6 14.6,-14.6 h 13.7 c 9.3,0 16.9,7.5 16.9,16.9 v 18.9 c 0,9.4 -7.5,16.9 -16.9,16.9 z"
         id="path1017" />
      <path
         fill="#ff531a"
         stroke="#005983"
         stroke-width="6"
         stroke-miterlimit="10"
         d="m 1098.4,227.1 v 0 c -6.1,0 -11.2,-5 -11.2,-11.2 v -72.4 c 0,-6.1 5,-11.2 11.2,-11.2 v 0 c 6.1,0 11.2,5 11.2,11.2 v 72.4 c -0.1,6.2 -5.1,11.2 -11.2,11.2 z"
         id="path1019" />
      <path
         fill="none"
         stroke="#005983"
         stroke-width="6"
         stroke-miterlimit="10"
         d="m 1098,328.1 v 17.4 c 0,15.5 -12.6,28.1 -28.1,28.1 h -23.6"
         id="path1021" />
      <path
         fill="none"
         stroke="#005983"
         stroke-width="6"
         stroke-miterlimit="10"
         d="m 1098.4,328.1 v 17.4 c 0,15.5 12.6,28.1 28.1,28.1 h 23.6"
         id="path1023" />
      <path
         fill="none"
         stroke="#005983"
         stroke-width="6"
         stroke-miterlimit="10"
         d="m 1098.1,364.3 v 10.9 c 0,9.7 -7.9,17.6 -17.6,17.6 h -14.7"
         id="path1025" />
      <path
         fill="none"
         stroke="#005983"
         stroke-width="6"
         stroke-miterlimit="10"
         d="m 1098.3,355.2 v 20 c 0,9.7 7.9,17.6 17.6,17.6 h 14.7"
         id="path1027" />
      <circle
         fill="#d1d3d4"
         stroke="#005983"
         stroke-width="6"
         stroke-miterlimit="10"
         cx="1198.6"
         cy="368.39999"
         r="76.900002"
         id="circle1029" />
      <circle
         fill="#a7a9ac"
         stroke="#005983"
         stroke-width="6"
         stroke-miterlimit="10"
         cx="1198.6"
         cy="368.39999"
         r="52.799999"
         id="circle1031" />
    </g>
  </g>
</svg>
